# xmcd
#
# Track frame offsets:
#	150
#	7123
#	25292
#	36476
#	48738
#	77233
#	102573
#	112599
#	125956
#	144758
#	158450
#	175208
#
# Disc length: 2457 seconds
#
# Revision: 2
# Processed by: cddbd v1.5.2PL0 Copyright (c) Steve Scherf et al.
# Submitted via: EZCDAudioConverter 2.4.0.1
#
DISCID=9d09970c
DTITLE=Trebunie-Tutki - Kolędy Góralskie
DYEAR=1900
DGENRE=
TTITLE0=Życzenia
TTITLE1=Przybieżeli Do Betlejem
TTITLE2=A Wcora Z Wiecora
TTITLE3=Idziemy Z Kolendom
TTITLE4=Ej Malucki Malucki
TTITLE5=Do Szopy Hej Pasterze
TTITLE6=Dnia Jednego O Pólnocy
TTITLE7=Przy Hornej Dolinie
TTITLE8=Jezusicek Malusienki
TTITLE9=Z Narodzenia Pana
TTITLE10=Na Konrockiej Hali
TTITLE11=Za Kolęde Dziękujemy
EXTD=
EXTT0=
EXTT1=
EXTT2=
EXTT3=
EXTT4=
EXTT5=
EXTT6=
EXTT7=
EXTT8=
EXTT9=
EXTT10=
EXTT11=
PLAYORDER=
